<?xml version="1.0" standalone="no"?>
<!DOCTYPE svg PUBLIC "-//W3C//DTD SVG 20010904//EN"
 "http://www.w3.org/TR/2001/REC-SVG-20010904/DTD/svg10.dtd">
<svg version="1.0" xmlns="http://www.w3.org/2000/svg"
 width="600.000000pt" height="600.000000pt" viewBox="0 0 600.000000 600.000000"
 preserveAspectRatio="xMidYMid meet">
<metadata>
Created by potrace 1.11, written by Peter Selinger 2001-2013
</metadata>
<g transform="translate(0.000000,600.000000) scale(0.100000,-0.100000)"
fill="#000000" stroke="none">
<path d="M1134 5305 c-163 -29 -291 -174 -299 -337 -9 -183 94 -331 270 -388
26 -9 104 -14 221 -15 203 -2 234 -10 286 -75 74 -93 39 -234 -71 -283 -42
-18 -65 -20 -341 -18 l-296 1 -55 -27 c-69 -36 -107 -89 -116 -162 -6 -49 -4
-55 18 -72 46 -36 92 -15 105 47 3 16 14 41 24 54 l18 24 309 2 c287 2 312 4
364 23 222 84 280 358 113 526 -74 73 -124 86 -351 90 -185 3 -193 4 -240 29
-89 49 -132 126 -128 233 1 55 6 70 39 118 29 41 52 61 94 82 l56 27 336 1
c338 1 379 5 381 38 0 7 2 20 4 29 2 9 -6 27 -17 40 -19 22 -19 22 -343 23
-186 0 -348 -4 -381 -10z"/>
<path d="M2880 4603 c-289 -38 -538 -257 -619 -545 -14 -51 -21 -62 -42 -65
-13 -2 -42 -8 -64 -14 -22 -6 -47 -13 -55 -14 -8 -2 -46 -13 -85 -25 -311 -97
-644 -278 -965 -524 -58 -44 -107 -83 -110 -86 -3 -3 -41 -37 -84 -75 -151
-133 -177 -167 -178 -234 0 -47 23 -93 71 -140 66 -64 184 -167 264 -231 42
-34 77 -63 77 -63 0 -1 -228 -1 -507 0 -342 1 -514 -2 -530 -10 -13 -6 -26
-21 -29 -34 -6 -24 1 -172 12 -240 22 -140 87 -327 152 -443 20 -36 39 -69 41
-75 2 -5 34 -50 71 -100 64 -85 189 -216 255 -267 68 -53 193 -129 270 -164
73 -34 86 -44 116 -92 43 -68 167 -186 242 -231 80 -47 165 -80 255 -97 67
-14 271 -16 1537 -16 803 0 1485 3 1515 6 221 23 421 146 567 346 31 42 52 60
89 74 125 50 287 162 408 283 246 246 395 574 412 908 9 160 24 150 -238 152
-117 1 -216 2 -219 3 -3 0 -6 219 -6 487 l-1 487 -22 18 c-12 10 -31 18 -41
18 -11 0 -94 -43 -187 -96 -92 -53 -182 -105 -199 -115 -18 -11 -50 -29 -70
-40 -58 -33 -292 -168 -352 -204 l-54 -32 -66 62 c-111 106 -142 132 -261 225
-99 77 -315 230 -325 230 -2 0 -40 22 -84 49 -186 114 -464 234 -666 286 -55
14 -106 29 -114 34 -12 6 -15 55 -15 288 -1 261 -2 282 -20 302 -19 20 -62 25
-146 14z m1853 -1770 c143 -82 138 -80 307 -177 106 -61 112 -66 80 -66 -50
-1 -891 -1 -914 -1 -14 1 -5 11 30 38 64 48 148 118 204 169 118 109 136 123
148 119 8 -3 73 -39 145 -82z"/>
</g>
</svg>
